<svg width="96" height="96" viewBox="0 0 96 96" fill="none" xmlns="http://www.w3.org/2000/svg">
<path d="M47.1115 8.57645C48.3819 8.57645 49.4118 7.5466 49.4118 6.2762C49.4118 5.00581 48.3819 3.97595 47.1115 3.97595C45.841 3.97595 44.8112 5.00581 44.8112 6.2762C44.8112 7.5466 45.841 8.57645 47.1115 8.57645Z" fill="#3D2600"/>
<path d="M73.9107 12.1881C68.0057 7.90699 61.0106 5.04391 53.4232 4.11157L53.006 8.98859C59.5423 9.83039 65.561 12.3068 70.6963 15.9505L73.9107 12.1881Z" fill="#3D2600"/>
<path d="M17.9536 21.079C19.2274 21.079 20.2564 20.0512 20.2564 18.7811C20.2564 17.5087 19.2286 16.4809 17.9536 16.4809C17.3565 16.4809 16.8157 16.7134 16.4095 17.0865C16.3153 17.182 16.2321 17.2872 16.1391 17.3826C15.8417 17.7717 15.6558 18.2514 15.6558 18.7811C15.657 20.05 16.6848 21.079 17.9536 21.079Z" fill="#3D2600"/>
<path d="M41.3332 9.21897L40.6921 4.3811C33.4327 5.59241 26.7789 8.59374 21.1688 12.892L24.1604 16.6936C29.1061 12.9312 34.9548 10.3006 41.3332 9.21897Z" fill="#3D2600"/>
<path d="M86.8743 41.8935L91.7208 41.4653C90.5756 33.7961 87.4787 26.7571 82.916 20.8976L79.2637 24.1926C83.1485 29.2703 85.8257 35.3121 86.8743 41.8935Z" fill="#3D2600"/>
<path d="M15.9871 25.0598L12.1328 22.16C8.08771 27.7589 5.31633 34.3367 4.25549 41.4687L9.02007 42.0083C9.99281 35.7548 12.4363 29.9821 15.9871 25.0598Z" fill="#3D2600"/>
<path d="M77.0103 20.3397C78.28 20.3397 79.3094 19.3104 79.3094 18.0407C79.3094 16.7709 78.28 15.7416 77.0103 15.7416C75.7405 15.7416 74.7112 16.7709 74.7112 18.0407C74.7112 19.3104 75.7405 20.3397 77.0103 20.3397Z" fill="#3D2600"/>
<path d="M89.8243 45.5294C88.5543 45.5294 87.5265 46.5559 87.5265 47.8284C87.5265 49.0996 88.5543 50.1274 89.8243 50.1274C91.0981 50.1274 92.1271 49.0996 92.1271 47.8284C92.1271 46.5584 91.0993 45.5294 89.8243 45.5294Z" fill="#3D2600"/>
<path d="M77.2269 75.7351C75.9569 75.7351 74.9279 76.7617 74.9279 78.0341C74.9279 79.3054 75.9581 80.3332 77.2269 80.3332C77.8265 80.3332 78.3673 80.0995 78.776 79.7263C78.8274 79.6761 78.8763 79.626 78.9253 79.5758C79.2972 79.1684 79.5297 78.6312 79.5297 78.0341C79.5297 76.7629 78.5019 75.7351 77.2269 75.7351Z" fill="#3D2600"/>
<path d="M6.22926 50.1485C7.48342 50.1485 8.49531 49.1513 8.5259 47.9082C8.5259 47.8813 8.53079 47.8556 8.53079 47.8299C8.51856 46.566 7.49688 45.5505 6.23048 45.5505C4.96042 45.5505 3.9314 46.577 3.9314 47.8507C3.93017 49.1195 4.96042 50.1485 6.22926 50.1485Z" fill="#3D2600"/>
<path d="M53.2179 87.129L53.4283 91.8653C61.0695 90.922 68.1197 88.0564 74.0467 83.719L70.8055 80.1671C65.7093 83.8107 59.7102 86.2529 53.2179 87.129Z" fill="#3D2600"/>
<path d="M79.384 71.7855L83.067 74.8994C87.6529 68.931 90.762 61.7697 91.8204 53.961L86.9616 53.7592C85.9901 60.4654 83.2958 66.6124 79.384 71.7855Z" fill="#3D2600"/>
<path d="M47.1113 87.5754C45.8413 87.5754 44.8135 88.6019 44.8135 89.8756C44.8135 91.1457 45.8413 92.1734 47.1113 92.1734C48.3851 92.1734 49.4141 91.1457 49.4141 89.8756C49.4141 88.6044 48.3863 87.5754 47.1113 87.5754Z" fill="#3D2600"/>
<path d="M20.8734 82.8977C26.5912 87.3526 33.4236 90.4408 40.8812 91.6533L41.2838 86.9353C34.8869 85.8403 29.0334 83.1742 24.0767 79.3873L20.8734 82.8977Z" fill="#3D2600"/>
<path d="M8.96119 53.9077L4.21497 54.1046C5.2342 61.4312 8.02638 68.1961 12.1853 73.9235L15.7973 70.8708C12.2856 65.935 9.89355 60.1563 8.96119 53.9077Z" fill="#3D2600"/>
<path d="M17.9265 74.7405C16.6565 74.7405 15.6287 75.767 15.6287 77.0395C15.6287 78.3108 16.6565 79.3385 17.9265 79.3385C19.2003 79.3385 20.2293 78.3108 20.2293 77.0395C20.2293 75.7683 19.2015 74.7405 17.9265 74.7405Z" fill="#3D2600"/>
<path d="M83.762 48.0813C83.762 28.3322 67.6953 12.2672 47.9469 12.2672C28.1997 12.2672 12.1331 28.3334 12.1331 48.0813C12.1331 67.828 28.1997 83.8943 47.9469 83.8943C67.6966 83.8943 83.762 67.828 83.762 48.0813Z" fill="#115417"/>
<path d="M47.9969 0C21.5311 0 0 21.5318 0 47.9982C0 74.4657 21.5311 96 47.9969 96C74.4664 96 96 74.4657 96 47.9982C96 21.5318 74.4664 0 47.9969 0ZM82.9152 20.8968C87.4791 26.7563 90.5759 33.7941 91.72 41.4645L86.8734 41.8927C85.826 35.3125 83.1476 29.2695 79.2616 24.193L82.9152 20.8968ZM92.1274 47.8293C92.1274 49.1006 91.0996 50.1283 89.8246 50.1283C88.5546 50.1283 87.5268 49.1006 87.5268 47.8293C87.5268 46.5568 88.5546 45.5303 89.8246 45.5303C91.0996 45.5291 92.1274 46.5581 92.1274 47.8293ZM16.1389 17.3816C16.2319 17.2861 16.3151 17.1809 16.4093 17.0855C16.8167 16.7123 17.3576 16.4798 17.9534 16.4798C19.2272 16.4798 20.2562 17.5076 20.2562 18.7801C20.2562 20.0501 19.2284 21.0779 17.9534 21.0779C16.6834 21.0779 15.6556 20.0501 15.6556 18.7801C15.6568 18.2491 15.8415 17.7694 16.1389 17.3816ZM47.9468 12.266C67.6964 12.266 83.7619 28.3322 83.7619 48.0801C83.7619 67.8268 67.6952 83.8931 47.9468 83.8931C28.1996 83.8931 12.1329 67.8268 12.1329 48.0801C12.1329 28.3322 28.1996 12.266 47.9468 12.266ZM77.0102 15.7408C78.2839 15.7408 79.313 16.7686 79.313 18.0411C79.313 19.3111 78.2852 20.3389 77.0102 20.3389C75.7401 20.3389 74.7111 19.3111 74.7111 18.0411C74.7111 16.7674 75.7401 15.7408 77.0102 15.7408ZM53.4235 4.11109C61.0108 5.04342 68.006 7.9065 73.9109 12.1877L70.6954 15.95C65.5601 12.3063 59.5425 9.8299 53.005 8.98811L53.4235 4.11109ZM47.1111 3.97527C48.3848 3.97527 49.4138 5.00549 49.4138 6.27553C49.4138 7.54556 48.386 8.57455 47.1111 8.57455C45.841 8.57455 44.8132 7.54678 44.8132 6.27553C44.8132 5.00427 45.8422 3.97527 47.1111 3.97527ZM41.3334 9.21813C34.9549 10.2997 29.1063 12.9291 24.1618 16.6915L21.1702 12.89C26.779 8.59291 33.4328 5.59157 40.6922 4.38027L41.3334 9.21813ZM12.1329 22.1607L15.9872 25.0605C12.4364 29.9828 9.99289 35.7542 9.01893 42.0089L4.25435 41.4694C5.31641 34.3374 8.08657 27.7596 12.1329 22.1607ZM6.22919 45.5486C7.49558 45.5486 8.51849 46.5642 8.5295 47.8281C8.5295 47.8538 8.52461 47.8795 8.52461 47.9064C8.49402 49.1483 7.48335 50.1467 6.22797 50.1467C4.9579 50.1467 3.92888 49.1189 3.92888 47.8489C3.9301 46.5752 4.96035 45.5486 6.22919 45.5486ZM12.1855 73.9225C8.02784 68.1951 5.23443 61.4302 4.2152 54.1036L8.96142 53.9066C9.89378 60.1552 12.2859 65.934 15.7975 70.8698L12.1855 73.9225ZM17.9265 79.3379C16.6564 79.3379 15.6286 78.3101 15.6286 77.0388C15.6286 75.7664 16.6564 74.7398 17.9265 74.7398C19.2002 74.7398 20.2293 75.7676 20.2293 77.0388C20.2293 78.3101 19.2015 79.3379 17.9265 79.3379ZM40.8807 91.6528C33.4242 90.4415 26.5906 87.352 20.8729 82.8971L24.0762 79.3856C29.0328 83.1712 34.8864 85.8385 41.2832 86.9336L40.8807 91.6528ZM47.1111 92.174C45.841 92.174 44.8132 91.1462 44.8132 89.8762C44.8132 88.6025 45.841 87.5759 47.1111 87.5759C48.3848 87.5759 49.4138 88.6037 49.4138 89.8762C49.4138 91.145 48.386 92.174 47.1111 92.174ZM53.4296 91.8657L53.2191 87.1293C59.7114 86.2533 65.7106 83.8111 70.8067 80.1674L74.048 83.7194C68.121 88.0568 61.0696 90.9223 53.4296 91.8657ZM78.9251 79.5752C78.8762 79.6254 78.8284 79.6756 78.7758 79.7257C78.3671 80.0989 77.8263 80.3326 77.2268 80.3326C75.9567 80.3326 74.9277 79.3048 74.9277 78.0336C74.9277 76.7611 75.9579 75.7345 77.2268 75.7345C78.5005 75.7345 79.5295 76.7623 79.5295 78.0336C79.5295 78.6307 79.2971 79.1678 78.9251 79.5752ZM83.0669 74.8989L79.3839 71.785C83.2957 66.6106 85.99 60.4648 86.9627 53.7586L91.8215 53.9605C90.7619 61.7679 87.6528 68.9305 83.0669 74.8989Z" fill="#D3B775"/>
<path d="M47.1964 68.8131L17.3401 47.8698L47.1964 26.9241L77.0478 47.8698L47.1964 68.8131Z" fill="#3D2600"/>
<path d="M47.1964 68.8131L17.3401 47.8698L47.1964 26.9241L77.0478 47.8698L47.1964 68.8131ZM23.1814 47.8698L47.1964 64.7167L71.2102 47.8698L47.1964 31.0217L23.1814 47.8698Z" fill="#D3B775"/>
<path d="M47.2869 53.8835C43.8756 53.8835 41.1018 51.1073 41.1018 47.6961C41.1018 44.2861 43.8769 41.5123 47.2869 41.5123C50.6983 41.5123 53.4733 44.2873 53.4733 47.6961C53.4733 51.1073 50.6983 53.8835 47.2869 53.8835ZM47.2869 44.866C45.7257 44.866 44.4544 46.1361 44.4544 47.6973C44.4544 49.2598 45.7257 50.531 47.2869 50.531C48.8482 50.531 50.1195 49.2598 50.1195 47.6973C50.1195 46.1361 48.8482 44.866 47.2869 44.866Z" fill="#D3B775"/>
<path d="M70.8838 55.2819C70.3026 54.5466 69.6443 53.9703 68.9799 53.5298L65.7962 55.764C66.4141 55.8839 67.4382 56.3562 68.2396 57.3705C69.2099 58.599 69.4363 60.3633 68.7939 61.6627C67.4651 64.3373 64.6876 64.9552 63.1422 64.5417C62.0863 64.2627 59.6306 63.1774 59.6306 59.1838C59.6306 55.1706 58.5967 52.8899 56.2548 51.8034C61.7816 48.7727 65.6004 43.0845 65.6004 36.7221C65.6004 26.0969 56.0627 19.5216 47.2261 19.5216C40.9871 19.5216 34.6135 23.1053 31.3013 28.3604C28.8432 28.1794 26.0828 28.9893 24.2951 31.5062C22.8489 33.5348 22.3558 35.9427 22.9052 38.2858C23.2686 39.8397 24.0688 41.2443 25.1859 42.3663L28.0136 40.3829C27.102 39.6476 26.4474 38.6492 26.1831 37.5186C25.9543 36.5361 25.9139 35.0361 27.0384 33.4577C28.8468 30.914 32.1688 31.6579 33.2664 32.4067C34.1167 32.9879 35.4015 33.8676 35.4015 36.7808C35.4015 38.9257 35.3379 45.3493 35.2828 50.9959C35.2387 55.4349 35.1996 59.3942 35.1996 60.4294C35.1996 62.0897 33.757 63.7574 31.6904 64.4829C30.1157 65.0348 27.2696 64.2358 26.2137 61.6688C25.2764 59.3906 25.9861 57.2225 28.1824 55.4789L25.3548 53.4956C22.5993 56.1127 21.7146 59.5827 23.0997 62.9511C24.4677 66.2767 27.7701 68.0067 30.6797 68.0055C31.4286 68.0055 32.1517 67.8917 32.8087 67.6605C36.2531 66.4504 38.5693 63.5433 38.5693 60.4306C38.5693 59.4358 38.606 55.7212 38.6464 51.4878C41.6429 53.2484 44.5012 54.1208 47.3166 54.1208C49.1422 54.1208 50.9127 53.8455 52.5914 53.3463C55.1291 53.8761 56.2621 55.6906 56.2621 59.1875C56.2621 64.3606 59.3688 67.0279 62.2747 67.8C62.8486 67.9529 63.4689 68.0324 64.1089 68.0324C66.9194 68.0324 70.1423 66.5189 71.8088 63.1627C73.0311 60.6973 72.6592 57.5333 70.8838 55.2819ZM47.3178 50.7487C44.6284 50.7487 41.7959 49.6769 38.6868 47.5039C38.7308 42.9156 38.7724 38.4889 38.7724 36.7796C38.7724 32.0898 36.2482 30.3646 35.1507 29.6133C35.0136 29.5191 34.8643 29.431 34.7114 29.3466C37.5378 25.5243 42.5104 22.8912 47.2273 22.8912C54.4439 22.8912 62.2331 28.1794 62.2331 36.7233C62.2331 44.3252 55.4032 50.7487 47.3178 50.7487Z" fill="#D3B775"/>
<path d="M32.5473 54.4353C32.9609 54.7265 33.9324 55.4068 33.9324 55.4068V59.5375L32.0861 58.2258L32.5473 54.4353Z" fill="#D3B775"/>
<path d="M33.0244 40.974C33.5395 40.6302 34.0057 40.3365 34.0057 40.3365V36.1385L32.7784 37.0464L33.0244 40.974Z" fill="#D3B775"/>
<path d="M54.2228 63.8623C54.6841 63.5466 55.2433 63.133 55.2433 63.133C55.2433 63.133 54.9998 62.1848 54.9031 61.0922C54.8211 60.1721 54.8786 59.2936 54.8786 59.2936C54.8786 59.2936 53.9304 59.9983 53.5425 60.2651C53.1534 60.533 54.2228 63.8623 54.2228 63.8623Z" fill="#D3B775"/>
<path d="M58.9357 39.2485C59.3248 39.5152 60.3697 40.2445 60.3697 40.2445C60.3697 40.2445 60.6132 39.3207 60.7098 38.2758C60.8065 37.2309 60.7588 36.4295 60.7588 36.4295L59.2526 35.3846L58.9357 39.2485Z" fill="#D3B775"/>
</svg>
